<svg width="32" height="32" viewBox="0 0 32 32" fill="none" xmlns="http://www.w3.org/2000/svg">
<g clip-path="url(#clip0)">
<path d="M31.528 3.73338C30.8986 3.10395 29.8784 3.10416 29.2496 3.73359L14.7908 18.1947L8.13031 11.534C7.50089 10.9048 6.4807 10.9045 5.85192 11.5338C5.22249 12.163 5.22249 13.1832 5.8517 13.8121L13.6517 21.6125C13.9539 21.9148 14.3636 22.0845 14.7911 22.0845C15.2183 22.0845 15.6282 21.9148 15.9305 21.6125L31.5284 6.01177C32.1572 5.38277 32.1572 4.36259 31.528 3.73338Z" fill="white"/>
<path d="M28.0492 14.059C27.1594 14.059 26.4381 14.7801 26.4381 15.6701V27.6078H3.22232V4.39203H21.6046C22.4946 4.39203 23.2157 3.67087 23.2157 2.78087C23.2157 1.89108 22.4946 1.16971 21.6046 1.16971H1.61116C0.72137 1.16971 0 1.89086 0 2.78087V29.2189C0 30.1089 0.72137 30.8301 1.61116 30.8301H28.0492C28.9392 30.8301 29.6604 30.1089 29.6604 29.2189V15.6701C29.6604 14.7804 28.9392 14.059 28.0492 14.059Z" fill="white"/>
</g>
<defs>
<clipPath id="clip0">
<rect width="32" height="32" fill="white"/>
</clipPath>
</defs>
</svg>
