<svg width="30" height="36" viewBox="0 0 30 36" fill="none" xmlns="http://www.w3.org/2000/svg">
<path d="M29.9274 26.7827C29.7847 26.0194 29.0516 25.5165 28.2899 25.6596C27.5284 25.8026 27.0266 26.5374 27.1693 27.3007C27.2752 27.8671 27.0268 28.2707 26.8694 28.4609C26.7123 28.6505 26.3632 28.9688 25.7905 28.9688H4.49355C3.92078 28.9688 3.57171 28.6506 3.41464 28.4609C3.25723 28.2707 3.00883 27.8671 3.11475 27.3007C3.51271 25.1722 4.31123 23.7722 5.08344 22.4183C6.02127 20.7741 6.99102 19.0739 6.99102 16.4531V14.3437C6.99102 9.90928 10.5871 6.25268 15.0093 6.18834H15.2745C19.6818 6.25254 23.2659 9.90914 23.2659 14.3438V16.4531C23.2659 18.6836 23.9938 20.2185 24.6761 21.4821C24.9301 21.9523 25.4127 22.2192 25.9112 22.2192C26.1367 22.2192 26.3656 22.1646 26.5778 22.0494C27.2593 21.6798 27.5127 20.8264 27.1438 20.1434C26.4649 18.8861 26.0718 17.8791 26.0718 16.4531V14.3438C26.0718 11.4496 24.9534 8.71615 22.9225 6.64692C21.1821 4.87357 18.9474 3.76692 16.5315 3.46148V1.40625C16.5315 0.629578 15.9033 0 15.1285 0C14.3536 0 13.7255 0.629578 13.7255 1.40625V3.46563C8.36196 4.16313 4.1851 8.80179 4.1851 14.3438V16.4531C4.1851 18.3267 3.50654 19.5164 2.64749 21.0225C1.8012 22.5063 0.8419 24.1881 0.356744 26.7827C0.125179 28.0214 0.452779 29.2877 1.25557 30.2572C2.0576 31.2258 3.23787 31.7812 4.49355 31.7812H10.9466C10.9466 34.1075 12.8347 36 15.1555 36C17.4764 36 19.3645 34.1075 19.3645 31.7812H25.7905C27.0462 31.7812 28.2264 31.2258 29.0285 30.2572C29.8312 29.2878 30.1588 28.0214 29.9274 26.7827ZM15.1555 33.1875C14.3819 33.1875 13.7526 32.5567 13.7526 31.7812H16.5585C16.5585 32.5567 15.9292 33.1875 15.1555 33.1875Z" fill="white"/>
</svg>
