<svg width="35" height="35" viewBox="0 0 35 35" fill="none" xmlns="http://www.w3.org/2000/svg">
<path d="M14.7778 0H1.2963C0.583333 0 0 0.583333 0 1.2963V14.7778C0 15.4907 0.583333 16.0741 1.2963 16.0741H14.7778C15.4907 16.0741 16.0741 15.4907 16.0741 14.7778V1.2963C16.0741 0.583333 15.4907 0 14.7778 0ZM13.4815 13.4815H2.59259V2.59259H13.4815V13.4815Z" fill="white"/>
<path d="M33.7037 0H20.2222C19.5093 0 18.9259 0.583333 18.9259 1.2963V14.7778C18.9259 15.4907 19.5093 16.0741 20.2222 16.0741H33.7037C34.4167 16.0741 35 15.4907 35 14.7778V1.2963C35 0.583333 34.4167 0 33.7037 0ZM32.4074 13.4815H21.5185V2.59259H32.4074V13.4815Z" fill="white"/>
<path d="M14.7778 18.9259H1.2963C0.583333 18.9259 0 19.5093 0 20.2222V33.7037C0 34.4167 0.583333 35 1.2963 35H14.7778C15.4907 35 16.0741 34.4167 16.0741 33.7037V20.2222C16.0741 19.5093 15.4907 18.9259 14.7778 18.9259ZM13.4815 32.4074H2.59259V21.5185H13.4815V32.4074Z" fill="white"/>
<path d="M33.7037 18.9259H20.2222C19.5093 18.9259 18.9259 19.5093 18.9259 20.2222V33.7037C18.9259 34.4167 19.5093 35 20.2222 35H33.7037C34.4167 35 35 34.4167 35 33.7037V20.2222C35 19.5093 34.4167 18.9259 33.7037 18.9259ZM32.4074 32.4074H21.5185V21.5185H32.4074V32.4074Z" fill="white"/>
</svg>
