<svg width="32" height="32" viewBox="0 0 32 32" fill="none" xmlns="http://www.w3.org/2000/svg">
<g clip-path="url(#clip0)">
<path d="M15.7565 10.932L20.3373 15.5128L20.3591 15.2729C20.3591 12.8661 18.4032 10.9102 15.9965 10.9102L15.7565 10.932Z" fill="#CBCBCB"/>
<path d="M15.9964 8.00185C20.0101 8.00185 23.2675 11.2593 23.2675 15.2729C23.2675 16.2109 23.0785 17.1053 22.7513 17.9269L27.0049 22.1804C29.2007 20.3481 30.9312 17.9778 32.0001 15.2729C29.4771 8.88897 23.2748 4.36633 15.9965 4.36633C13.9606 4.36633 12.012 4.72986 10.2015 5.38426L13.3426 8.51807C14.1641 8.19817 15.0585 8.00185 15.9964 8.00185Z" fill="#CBCBCB"/>
<path d="M1.45425 4.03906L4.76986 7.35467L5.43155 8.01636C3.0321 9.8923 1.13435 12.3863 6.10352e-05 15.2729C2.51588 21.6569 8.72535 26.1795 15.9964 26.1795C18.2505 26.1795 20.4027 25.7432 22.3732 24.9506L22.9913 25.5687L27.2303 29.815L29.0844 27.9682L3.30838 2.18494L1.45425 4.03906ZM9.49611 12.0736L11.7429 14.3204C11.6774 14.6331 11.6338 14.9457 11.6338 15.2729C11.6338 17.6796 13.5897 19.6355 15.9964 19.6355C16.3236 19.6355 16.6363 19.5919 16.9417 19.5265L19.1885 21.7732C18.2214 22.2531 17.1453 22.544 15.9964 22.544C11.9828 22.544 8.72535 19.2865 8.72535 15.2729C8.72535 14.1241 9.01622 13.0479 9.49611 12.0736Z" fill="#CBCBCB"/>
</g>
<defs>
<clipPath id="clip0">
<rect width="32" height="32" fill="white"/>
</clipPath>
</defs>
</svg>
