<svg width="66" height="75" viewBox="0 0 66 75" fill="none" xmlns="http://www.w3.org/2000/svg">
<path d="M62.7 16.3038L35.85 0.803847C34.9379 0.277238 33.9032 0 32.85 0C31.7968 0 30.7621 0.277238 29.85 0.803847L3 16.3038C2.08732 16.8308 1.32953 17.5888 0.802886 18.5017C0.276243 19.4145 -0.000674451 20.45 1.23356e-06 21.5038V31.0038C1.23356e-06 31.5343 0.210715 32.043 0.585788 32.4181C0.96086 32.7931 1.46957 33.0038 2 33.0038C2.53043 33.0038 3.03914 32.7931 3.41422 32.4181C3.78929 32.043 4 31.5343 4 31.0038V22.6638L15.32 29.1938C15.3101 29.377 15.3101 29.5606 15.32 29.7438V42.5238L3 35.4438C2.69611 35.2684 2.35141 35.176 2.00051 35.1759C1.64961 35.1758 1.30487 35.268 1.00089 35.4433C0.696911 35.6186 0.444402 35.8708 0.268719 36.1746C0.0930356 36.4783 0.000360941 36.8229 1.23356e-06 37.1738V52.5038C-0.000674451 53.5577 0.276243 54.5932 0.802886 55.506C1.32953 56.4189 2.08732 57.1769 3 57.7038L29.85 73.2038C30.7621 73.7304 31.7968 74.0077 32.85 74.0077C33.9032 74.0077 34.9379 73.7304 35.85 73.2038L62.7 57.7038C63.6127 57.1769 64.3705 56.4189 64.8971 55.506C65.4238 54.5932 65.7007 53.5577 65.7 52.5038V21.5038C65.7007 20.45 65.4238 19.4145 64.8971 18.5017C64.3705 17.5888 63.6127 16.8308 62.7 16.3038ZM15.28 60.1738L5 54.2338C4.69626 54.0585 4.44398 53.8063 4.26846 53.5027C4.09295 53.199 4.00036 52.8546 4 52.5038V40.6338L15.28 47.1438V60.1738ZM31.85 4.27385C32.154 4.09831 32.4989 4.0059 32.85 4.0059C33.2011 4.0059 33.546 4.09831 33.85 4.27385L44.13 10.2038L32.85 16.7138L21.57 10.2038L31.85 4.27385ZM17.32 25.7238L6 19.1938L17.57 12.5138L28.85 19.0038L17.78 25.4138L17.32 25.7238ZM30.85 22.4938V35.8738L19.28 42.5338V29.7438C19.2811 29.5693 19.3278 29.3981 19.4155 29.2473C19.5032 29.0964 19.6289 28.9711 19.78 28.8838L30.85 22.4938ZM30.85 69.1538L19.28 62.4838V49.4838L30.35 55.8438C30.5094 55.941 30.6766 56.0247 30.85 56.0938V69.1538ZM32.35 52.3838L21.29 46.0038L32.85 39.3338L44.41 46.0038L33.35 52.3838C33.198 52.4716 33.0255 52.5178 32.85 52.5178C32.6745 52.5178 32.502 52.4716 32.35 52.3838ZM46.42 62.4838L34.85 69.1538V56.0938C35.0234 56.0247 35.1906 55.941 35.35 55.8438L46.42 49.4538V62.4838ZM46.42 42.4838L34.85 35.8738V22.4938L45.92 28.8838C46.0711 28.9711 46.1968 29.0964 46.2845 29.2473C46.3722 29.3981 46.419 29.5693 46.42 29.7438V42.4838ZM47.92 25.3638L36.85 19.0038L48.13 12.4938L59.7 19.1738L48.38 25.7238L47.92 25.3638ZM61.7 52.5038C61.6996 52.8546 61.6071 53.199 61.4315 53.5027C61.256 53.8063 61.0037 54.0585 60.7 54.2338L50.42 60.1738V47.1738L58.67 42.4138C59.1302 42.1486 59.4661 41.7115 59.6039 41.1986C59.7418 40.6857 59.6702 40.139 59.405 39.6788C59.1398 39.2187 58.7026 38.8827 58.1897 38.7449C57.6768 38.6071 57.1302 38.6786 56.67 38.9438L50.42 42.5538V29.7438C50.4299 29.5606 50.4299 29.377 50.42 29.1938L61.74 22.6638L61.7 52.5038Z" fill="white"/>
</svg>
