<svg width="35" height="35" viewBox="0 0 35 35" fill="none" xmlns="http://www.w3.org/2000/svg">
<g clip-path="url(#clip0)">
<path d="M-1.5299e-06 0L0 35L2.05078 35L2.05078 -8.96425e-08L-1.5299e-06 0Z" fill="white"/>
<path d="M4.10156 31.5137L25.4297 31.5137L25.4297 18.5254L4.10156 18.5254L4.10156 31.5137ZM23.3789 20.5762L23.3789 29.4629L6.15234 29.4629L6.15234 20.5762L23.3789 20.5762Z" fill="white"/>
<path d="M4.10156 16.4746L35 16.4746L35 3.48633L4.10156 3.48633L4.10156 16.4746ZM32.9492 5.53711L32.9492 14.4238L6.15234 14.4238L6.15234 5.53711L32.9492 5.53711Z" fill="white"/>
</g>
<defs>
<clipPath id="clip0">
<rect width="35" height="35" fill="white" transform="translate(0 35) rotate(-90)"/>
</clipPath>
</defs>
</svg>
