<svg width="30" height="30" viewBox="0 0 30 30" fill="none" xmlns="http://www.w3.org/2000/svg">
<g clip-path="url(#clip0)">
<path d="M7.24079 15.8232L21.1167 29.6607C21.5713 30.1139 22.3073 30.1131 22.7612 29.6584C23.2147 29.2038 23.2136 28.4673 22.7589 28.0139L9.70893 14.9999L22.7593 1.9861C23.214 1.53258 23.2151 0.796589 22.7617 0.341904C22.5342 0.113975 22.2361 9.22315e-06 21.938 9.1971e-06C21.6407 9.1711e-06 21.3438 0.113213 21.1167 0.339559L7.24079 14.1767C7.02183 14.3946 6.89896 14.691 6.89896 14.9999C6.89896 15.3089 7.02218 15.605 7.24079 15.8232Z" fill="white"/>
</g>
<defs>
<clipPath id="clip0">
<rect width="30" height="30" fill="white" transform="translate(30 30) rotate(-180)"/>
</clipPath>
</defs>
</svg>
