<svg width="40" height="40" viewBox="0 0 40 40" fill="none" xmlns="http://www.w3.org/2000/svg">
<g clip-path="url(#clip0)">
<path d="M19.572 31.3154H21.9622C21.9622 31.3154 22.6847 31.2354 23.0523 30.8378C23.3923 30.4728 23.3798 29.7878 23.3798 29.7878C23.3798 29.7878 23.3323 26.58 24.8224 26.1075C26.29 25.6424 28.1752 29.2077 30.1728 30.5803C31.6829 31.6179 32.8305 31.3904 32.8305 31.3904L38.1734 31.3154C38.1734 31.3154 40.9686 31.1429 39.6435 28.9452C39.536 28.7652 38.871 27.3201 35.6707 24.3499C32.3205 21.2396 32.7705 21.7447 36.8058 16.3668C39.2635 13.0915 40.2461 11.0914 39.9385 10.2363C39.646 9.42124 37.8384 9.63626 37.8384 9.63626L31.8279 9.67126C31.8279 9.67126 31.3829 9.61126 31.0504 9.80877C30.7278 10.0038 30.5203 10.4538 30.5203 10.4538C30.5203 10.4538 29.5678 12.989 28.2977 15.1442C25.62 19.692 24.5474 19.932 24.1099 19.6495C23.0923 18.992 23.3473 17.0043 23.3473 15.5942C23.3473 11.1864 24.0148 9.34874 22.0447 8.8737C21.3897 8.71619 20.9096 8.61118 19.237 8.59368C17.0918 8.57118 15.2742 8.60118 14.2466 9.10372C13.5616 9.43875 13.034 10.1863 13.3566 10.2288C13.7541 10.2813 14.6541 10.4713 15.1317 11.1214C15.7492 11.9589 15.7267 13.8441 15.7267 13.8441C15.7267 13.8441 16.0818 19.032 14.8992 19.677C14.0866 20.1195 12.974 19.217 10.5863 15.0892C9.36375 12.9765 8.43869 10.6388 8.43869 10.6388C8.43869 10.6388 8.26117 10.2038 7.94365 9.97129C7.55862 9.68876 7.01858 9.59876 7.01858 9.59876L1.30316 9.63376C1.30316 9.63376 0.445591 9.65876 0.130568 10.0313C-0.149453 10.3638 0.108066 11.0489 0.108066 11.0489C0.108066 11.0489 4.5834 21.5171 9.64878 26.795C14.2966 31.6329 19.572 31.3154 19.572 31.3154Z" fill="#1E88E5"/>
</g>
<defs>
<clipPath id="clip0">
<rect width="40" height="40" fill="white"/>
</clipPath>
</defs>
</svg>
